<svg version="1.2" xmlns="http://www.w3.org/2000/svg" viewBox="0 0 46 48" width="46" height="48"><style></style><path fill-rule="evenodd" d="m17.7 8h19.6c1 0 1.7 1.2 1.7 2.8 0 1.6-0.7 2.8-1.7 2.8h-19.6c-1 0-1.7-1.2-1.7-2.8 0-1.6 0.7-2.8 1.7-2.8z"/><path fill-rule="evenodd" d="m10.4 46.3c-4.5 1.2-8.8-0.2-9.6-3.1-0.8-2.9 2.2-6.3 6.8-7.5 4.5-1.2 8.8 0.2 9.6 3.1 0.8 2.9-2.2 6.3-6.8 7.5z"/><path fill-rule="evenodd" d="m16.5 8.5c0.6 0 1 0.4 1 1v30.5c0 0.6-0.4 1-1 1-0.6 0-1-0.4-1-1v-30.5c0-0.6 0.4-1 1-1z"/><path fill-rule="evenodd" d="m32.4 46.3c-4.5 1.2-8.8-0.2-9.6-3.1-0.8-2.9 2.2-6.3 6.8-7.5 4.5-1.2 8.8 0.2 9.6 3.1 0.8 2.9-2.2 6.3-6.8 7.5z"/><path fill-rule="evenodd" d="m38.5 8.5c0.6 0 1 0.4 1 1v30.5c0 0.6-0.4 1-1 1-0.6 0-1-0.4-1-1v-30.5c0-0.6 0.4-1 1-1z"/></svg>