<svg version="1.2" xmlns="http://www.w3.org/2000/svg" viewBox="0 0 72 48" width="72" height="48"><style></style><path fill-rule="evenodd" d="m15 5h56c1.1 0 2 1.1 2 2.5 0 1.4-0.9 2.5-2 2.5h-56c-1.1 0-2-1.1-2-2.5 0-1.4 0.9-2.5 2-2.5z"/><path fill-rule="evenodd" d="m8.4 46.3c-4.5 1.2-8.8-0.2-9.6-3.1-0.8-2.9 2.2-6.3 6.8-7.5 4.5-1.2 8.8 0.2 9.6 3.1 0.8 2.9-2.2 6.3-6.8 7.5z"/><path fill-rule="evenodd" d="m14.5 8.5c0.6 0 1 0.4 1 1v30.5c0 0.6-0.4 1-1 1-0.6 0-1-0.4-1-1v-30.5c0-0.6 0.4-1 1-1z"/><path fill-rule="evenodd" d="m27.4 46.3c-4.5 1.2-8.8-0.2-9.6-3.1-0.8-2.9 2.2-6.3 6.8-7.5 4.5-1.2 8.8 0.2 9.6 3.1 0.8 2.9-2.2 6.3-6.8 7.5z"/><path fill-rule="evenodd" d="m33.5 8.5c0.6 0 1 0.4 1 1v30.5c0 0.6-0.4 1-1 1-0.6 0-1-0.4-1-1v-30.5c0-0.6 0.4-1 1-1z"/><path fill-rule="evenodd" d="m46.4 46.3c-4.5 1.2-8.8-0.2-9.6-3.1-0.8-2.9 2.2-6.3 6.8-7.5 4.5-1.2 8.8 0.2 9.6 3.1 0.8 2.9-2.2 6.3-6.8 7.5z"/><path fill-rule="evenodd" d="m52.5 8.5c0.6 0 1 0.4 1 1v30.5c0 0.6-0.4 1-1 1-0.6 0-1-0.4-1-1v-30.5c0-0.6 0.4-1 1-1z"/><path fill-rule="evenodd" d="m65.4 46.3c-4.5 1.2-8.8-0.2-9.6-3.1-0.8-2.9 2.2-6.3 6.8-7.5 4.5-1.2 8.8 0.2 9.6 3.1 0.8 2.9-2.2 6.3-6.8 7.5z"/><path fill-rule="evenodd" d="m71.5 8.5c0.6 0 1 0.4 1 1v30.5c0 0.6-0.4 1-1 1-0.6 0-1-0.4-1-1v-30.5c0-0.6 0.4-1 1-1z"/></svg>