<svg version="1.2" xmlns="http://www.w3.org/2000/svg" viewBox="0 0 68 56" width="68" height="56"><style></style><path fill-rule="evenodd" d="m17.6 14h42.3c1.2 0 2.1 1.6 2.1 3.5 0 1.9-0.9 3.5-2.1 3.5h-42.3c-1.2 0-2.1-1.6-2.1-3.5 0-1.9 0.9-3.5 2.1-3.5z"/><path fill-rule="evenodd" d="m10.4 54.3c-4.5 1.2-8.8-0.2-9.6-3.1-0.8-2.9 2.2-6.3 6.8-7.5 4.5-1.2 8.8 0.2 9.6 3.1 0.8 2.9-2.2 6.3-6.8 7.5z"/><path fill-rule="evenodd" d="m16.5 17.5c0.6 0 1 0.4 1 1v29.5c0 0.6-0.4 1-1 1-0.6 0-1-0.4-1-1v-29.5c0-0.6 0.4-1 1-1z"/><path fill-rule="evenodd" d="m32.4 54.3c-4.5 1.2-8.8-0.2-9.6-3.1-0.8-2.9 2.2-6.3 6.8-7.5 4.5-1.2 8.8 0.2 9.6 3.1 0.8 2.9-2.2 6.3-6.8 7.5z"/><path fill-rule="evenodd" d="m38.5 17.5c0.6 0 1 0.4 1 1v29.5c0 0.6-0.4 1-1 1-0.6 0-1-0.4-1-1v-29.5c0-0.6 0.4-1 1-1z"/><path fill-rule="evenodd" d="m54.4 54.3c-4.5 1.2-8.8-0.2-9.6-3.1-0.8-2.9 2.2-6.3 6.8-7.5 4.5-1.2 8.8 0.2 9.6 3.1 0.8 2.9-2.2 6.3-6.8 7.5z"/><path fill-rule="evenodd" d="m60.5 17.5c0.6 0 1 0.4 1 1v29.5c0 0.6-0.4 1-1 1-0.6 0-1-0.4-1-1v-29.5c0-0.6 0.4-1 1-1z"/></svg>